<?xml version="1.0" standalone="no"?>
<!DOCTYPE svg PUBLIC "-//W3C//DTD SVG 20010904//EN"
 "http://www.w3.org/TR/2001/REC-SVG-20010904/DTD/svg10.dtd">
<svg version="1.0" xmlns="http://www.w3.org/2000/svg"
 width="1283.000000pt" height="290.000000pt" viewBox="0 0 1283.000000 290.000000"
 preserveAspectRatio="xMidYMid meet">
<metadata>
Created by potrace 1.15, written by Peter Selinger 2001-2017
</metadata>
<g transform="translate(0.000000,290.000000) scale(0.100000,-0.100000)"
fill="#000000" stroke="none">
<path d="M10450 2670 l0 -230 255 0 255 0 0 230 0 230 -255 0 -255 0 0 -230z"/>
<path d="M11090 2670 l0 -230 255 0 255 0 0 230 0 230 -255 0 -255 0 0 -230z"/>
<path d="M12560 2717 l-255 -183 -3 -1192 -2 -1192 265 0 265 0 0 1375 c0 756
-3 1375 -7 1375 -5 0 -123 -83 -263 -183z"/>
<path d="M9478 2704 l-246 -185 -7 -72 c-3 -40 -5 -409 -3 -822 4 -739 4 -751
26 -822 50 -164 122 -282 242 -396 133 -128 270 -194 485 -233 90 -17 157 -19
650 -19 529 0 553 1 641 22 403 96 659 344 756 730 31 121 33 392 4 498 -75
279 -264 514 -511 638 -87 43 -206 81 -307 97 -120 19 -323 8 -429 -23 -296
-89 -506 -257 -624 -501 -69 -141 -96 -260 -102 -442 -6 -170 7 -258 57 -396
l29 -80 -92 4 c-65 2 -104 9 -132 23 -72 35 -133 111 -169 210 -7 21 -12 330
-16 992 l-5 962 -247 -185z m1672 -1075 c171 -27 323 -165 374 -338 20 -68 21
-198 1 -270 -46 -174 -172 -302 -340 -346 -227 -59 -486 48 -579 238 -161 329
76 708 454 726 14 0 54 -4 90 -10z"/>
<path d="M699 2859 c-259 -27 -450 -146 -575 -356 -89 -149 -124 -274 -124
-448 0 -154 24 -255 91 -394 44 -91 63 -116 138 -190 63 -63 108 -97 167 -128
45 -24 86 -43 93 -43 10 0 221 409 221 429 0 5 -26 25 -57 45 -113 68 -163
151 -163 273 0 103 28 173 99 244 72 71 132 94 236 87 125 -8 215 -70 272
-186 23 -47 28 -70 28 -132 l-1 -75 -392 -782 c-216 -431 -392 -785 -392 -788
0 -3 479 -5 1065 -5 l1065 0 0 -205 0 -205 250 0 250 0 0 205 0 205 160 0 160
0 0 250 0 250 -160 0 -160 0 0 550 0 550 -244 0 -243 0 -7 -52 c-3 -29 -6
-277 -6 -550 l0 -498 -265 0 c-146 0 -265 2 -265 4 0 2 106 221 236 487 319
653 504 1039 504 1050 0 5 -116 9 -268 9 l-268 0 -385 -775 -384 -774 -112 -1
-112 0 176 358 c243 495 249 507 274 597 34 119 32 278 -5 400 -121 402 -479
639 -897 594z"/>
<path d="M3670 2145 l0 -235 255 0 255 0 0 235 0 235 -255 0 -255 0 0 -235z"/>
<path d="M4310 2145 l0 -235 255 0 255 0 0 235 0 235 -255 0 -255 0 0 -235z"/>
<path d="M7876 2140 c-152 -24 -325 -92 -449 -177 -79 -53 -198 -173 -255
-256 -26 -37 -212 -402 -413 -810 l-365 -742 65 -8 c100 -12 1593 -1 1671 12
171 29 316 83 442 164 130 83 269 247 334 393 86 194 112 498 59 698 -73 278
-286 527 -553 648 -149 68 -384 102 -536 78z m282 -531 c264 -87 395 -378 292
-651 -26 -68 -48 -101 -112 -166 -111 -112 -277 -161 -439 -129 -246 48 -398
225 -399 462 0 142 46 251 151 356 140 141 324 187 507 128z" style="fill: #ef4e54;" />
<path d="M5880 1810 l-110 -220 98 -49 c127 -64 173 -99 226 -170 63 -86 90
-177 84 -290 -4 -78 -9 -98 -42 -166 -66 -133 -177 -221 -313 -250 -103 -22
-1213 -22 -1298 0 -133 35 -238 122 -302 251 l-38 78 -3 343 -3 343 -256 0
-255 0 4 -372 c4 -348 6 -378 27 -453 47 -166 131 -312 253 -434 120 -120 267
-207 433 -253 80 -23 84 -23 952 -26 l873 -3 246 493 247 493 -12 79 c-58 380
-265 654 -602 795 -40 17 -79 31 -86 31 -7 0 -62 -99 -123 -220z"/>
</g>
</svg>
